<svg xmlns="http://www.w3.org/2000/svg" width="141.882" height="35.305" viewBox="0 0 141.882 35.305">
  <g id="Group_4" data-name="Group 4" transform="translate(-160 -26.978)">
    <g id="Group_2" data-name="Group 2" transform="translate(198.774 29.33)">
      <g id="Group_1" data-name="Group 1">
        <path id="Path_1" data-name="Path 1" d="M231.327,32.5a.474.474,0,0,1,.092-.029c5.165.034,10.335-.038,15.5.145a9.152,9.152,0,0,1,7.055,3.422c2.1,2.6,2.4,7.795-.058,10.352a7.756,7.756,0,0,1-3.9,2.251c-.163.038-.327.07-.49.108a.19.19,0,0,0-.065.04,17.479,17.479,0,0,1,1.859.682,5.937,5.937,0,0,1,3.232,5.069c.168,1.458.3,2.92.465,4.378a4.941,4.941,0,0,0,1.04,2.772h-1.412c-1.3,0-2.6-.036-3.9.017-.56.023-.861-.19-.963-.675-.254-1.214-.494-2.433-.692-3.658-.184-1.135-.211-2.3-.479-3.413a3.647,3.647,0,0,0-3.572-2.983c-1.835-.111-3.678-.08-5.517-.1-.814-.01-1.628,0-2.5,0V61.646h-5.7Zm5.708,13.792c.155.009.28.024.406.024,2.137,0,4.274.021,6.411-.014a14.764,14.764,0,0,0,2.543-.248,3.8,3.8,0,0,0,3.049-2.086c1.043-2.394.558-5.93-3.389-6.6-2.964-.5-5.968-.173-8.954-.2-.014,0-.028.022-.065.053Z" transform="translate(-231.327 -31.838)" fill="#fff"/>
        <path id="Path_2" data-name="Path 2" d="M304.989,41.807l-5.251.179c-.082-.5-.132-.974-.241-1.436a5.837,5.837,0,0,0-5.656-4.6,8.212,8.212,0,0,0-4.2.608,3.7,3.7,0,0,0-2.06,4.058,2.285,2.285,0,0,0,1.493,1.871,32.631,32.631,0,0,0,3.685,1.027c2.191.487,4.414.841,6.593,1.37a8.434,8.434,0,0,1,4.119,2.335,7.906,7.906,0,0,1,2.036,6.382,7.57,7.57,0,0,1-4.3,6.457,16.728,16.728,0,0,1-15.645-.579,9.616,9.616,0,0,1-4.535-8.117c-.009-.182,0-.364,0-.6l5.288-.233c.079.493.135.948.226,1.4a5.989,5.989,0,0,0,4.506,4.748,9.583,9.583,0,0,0,6.553-.221,3.335,3.335,0,0,0,2.314-3.167A2.693,2.693,0,0,0,298,50.46a37.309,37.309,0,0,0-4.128-1.116c-2.01-.45-4.045-.784-6.053-1.243a8.728,8.728,0,0,1-3.522-1.854,6.876,6.876,0,0,1-2.478-5.4c-.149-4.435,2.252-7.68,6.722-8.909a16.192,16.192,0,0,1,10.295.429,9.488,9.488,0,0,1,6.178,9.089C305.019,41.552,305,41.644,304.989,41.807Z" transform="translate(-254.008 -31.305)" fill="#fff"/>
        <path id="Path_3" data-name="Path 3" d="M370.1,74.808c.526,0,1.03,0,1.533.006.043,0,.105.08.123.135.288.9.569,1.806.852,2.709q.16.51.321,1.018a.364.364,0,0,0,.088.158c.018-.052.039-.1.053-.156.338-1.236.677-2.471,1.008-3.708a.185.185,0,0,1,.223-.166q.493.015.987,0a.179.179,0,0,1,.212.16q.5,1.854,1.018,3.705a.4.4,0,0,0,.082.165c.02-.049.043-.1.059-.149.383-1.234.768-2.467,1.145-3.7.04-.13.091-.183.235-.179.427.01.854,0,1.314,0l-1.914,6.03h-1.59l-1.1-3.977-.045,0c-.018.053-.039.1-.053.158q-.5,1.822-1,3.643c-.037.138-.089.191-.241.186-.427-.013-.855-.008-1.283,0a.149.149,0,0,1-.173-.124q-.914-2.9-1.835-5.792C370.121,74.9,370.117,74.866,370.1,74.808Z" transform="translate(-294.664 -51.158)" fill="#fff"/>
        <path id="Path_4" data-name="Path 4" d="M394.371,79.592c0,.277,0,.529,0,.781a.212.212,0,0,1-.08.144,1.688,1.688,0,0,1-1.454.272,1.218,1.218,0,0,1-.868-.957.216.216,0,0,0-.047.039,2.085,2.085,0,0,1-1.688.965,2.861,2.861,0,0,1-1.281-.129,1.606,1.606,0,0,1-.975-2.111,1.408,1.408,0,0,1,.706-.788,5.359,5.359,0,0,1,1.659-.555c.457-.089.913-.181,1.37-.267.1-.018.132-.058.132-.162a1,1,0,0,0-.608-1.014,1.212,1.212,0,0,0-1.348.327,5.705,5.705,0,0,0-.348.6L388.1,76.6a2.315,2.315,0,0,1,.415-1.037,2.507,2.507,0,0,1,1.949-1.039,3.7,3.7,0,0,1,1.589.176,1.929,1.929,0,0,1,1.365,1.845c.035.87.014,1.743.015,2.615,0,.451.226.628.665.516C394.183,79.657,394.265,79.626,394.371,79.592Zm-2.549-1.644c-.2.043-.408.08-.609.13-.425.105-.85.209-1.27.329a.575.575,0,0,0-.4.336.653.653,0,0,0,.5.947A1.518,1.518,0,0,0,391.822,77.949Z" transform="translate(-302.776 -51.023)" fill="#fff"/>
        <path id="Path_5" data-name="Path 5" d="M415.829,78.109H411.32a1.531,1.531,0,0,0,1.119,1.45,1.605,1.605,0,0,0,2.039-.955l1.312.136a2.574,2.574,0,0,1-.491,1.075,2.718,2.718,0,0,1-1.963,1.032,3.61,3.61,0,0,1-1.973-.295,2.8,2.8,0,0,1-1.665-2.49,3.309,3.309,0,0,1,.644-2.338,3.024,3.024,0,0,1,2.572-1.211,3.246,3.246,0,0,1,1.221.219,2.737,2.737,0,0,1,1.612,2.007A5.126,5.126,0,0,1,415.829,78.109Zm-1.6-1.032a1.37,1.37,0,0,0-1.668-1.343c-.58.077-1.268.824-1.2,1.343Z" transform="translate(-312.729 -51.025)" fill="#fff"/>
        <path id="Path_6" data-name="Path 6" d="M341.705,77.692a3.182,3.182,0,1,1,3.175,3.182A3.046,3.046,0,0,1,341.705,77.692Zm3.393-1.935a1.4,1.4,0,0,0-1.468.741,2.65,2.65,0,0,0-.051,2.289,1.3,1.3,0,0,0,1.308.84,1.317,1.317,0,0,0,1.308-.843,2.693,2.693,0,0,0-.01-2.2A1.232,1.232,0,0,0,345.1,75.756Z" transform="translate(-281.703 -51.025)" fill="#fff"/>
        <path id="Path_7" data-name="Path 7" d="M335.769,76.6l-1.333.057a.454.454,0,0,1-.026-.065,1.175,1.175,0,0,0-1.214-.951,1.584,1.584,0,0,0-.806.107.564.564,0,0,0-.241.9.826.826,0,0,0,.4.2c.536.111,1.079.188,1.615.3a3.585,3.585,0,0,1,.711.247,1.529,1.529,0,0,1,.965,1.392,1.666,1.666,0,0,1-.852,1.656,3.2,3.2,0,0,1-1.539.409,3.855,3.855,0,0,1-2.051-.412,1.987,1.987,0,0,1-1.049-1.523c-.01-.064-.009-.13-.015-.216l1.412-.054a1.15,1.15,0,0,0,.524.86,1.743,1.743,0,0,0,1.027.227,2.54,2.54,0,0,0,.595-.107.536.536,0,0,0,.433-.531.526.526,0,0,0-.418-.56c-.372-.105-.758-.166-1.139-.239a5.316,5.316,0,0,1-1.329-.352,1.688,1.688,0,0,1-.612-2.557,2.19,2.19,0,0,1,1.418-.819,4.026,4.026,0,0,1,2.108.145,2.051,2.051,0,0,1,1.41,1.724C335.767,76.488,335.766,76.532,335.769,76.6Z" transform="translate(-276.512 -51.02)" fill="#fff"/>
        <path id="Path_8" data-name="Path 8" d="M356.65,78.534h-1.624V73.66h-.885V72.509h.879c0-.152-.01-.287,0-.42a5.455,5.455,0,0,1,.1-.861,1.912,1.912,0,0,1,1.732-1.448,2.885,2.885,0,0,1,1.186.1,1.846,1.846,0,0,1,1.208,1.351l-1.021.334a4.134,4.134,0,0,0-.31-.421.777.777,0,0,0-.995-.066.894.894,0,0,0-.274.649c-.019.251,0,.5,0,.777h1.6V73.65h-1.6Z" transform="translate(-287.378 -48.856)" fill="#fff"/>
        <path id="Path_9" data-name="Path 9" d="M362.634,74.557h-.855v-.964c.108-.021.223-.048.34-.065.552-.083.755-.236.934-.882.081-.29.138-.586.212-.905h.995V73.4H365.9v1.149h-1.629v2.934c0,.054,0,.11,0,.164a.59.59,0,0,0,.646.632,4.774,4.774,0,0,0,.831-.161,1.963,1.963,0,0,0,.268-.105c0,.354,0,.691,0,1.027a.173.173,0,0,1-.083.109,2.652,2.652,0,0,1-2.372.309,1.277,1.277,0,0,1-.9-1.165,4.284,4.284,0,0,1-.026-.443q0-1.555,0-3.109Z" transform="translate(-290.864 -49.76)" fill="#fff"/>
        <path id="Path_10" data-name="Path 10" d="M401.267,74.667h1.625v1.021a9.1,9.1,0,0,1,.576-.735,1.608,1.608,0,0,1,1.812-.3.21.21,0,0,1,.146.237c-.045.452-.077.9-.115,1.376-.055-.023-.1-.04-.141-.06a1.83,1.83,0,0,0-1.106-.158,1.378,1.378,0,0,0-1.14,1.308,4.453,4.453,0,0,0-.025.459q0,1.341,0,2.682v.2h-1.632Z" transform="translate(-308.886 -51.017)" fill="#fff"/>
      </g>
    </g>
    <g id="Group_3" data-name="Group 3" transform="translate(160 26.978)">
      <path id="Path_11" data-name="Path 11" d="M184.015,32.729V26.978c-8.15,0-8.15,9.444-13.436,10.227V43.1C178.73,43.1,178.73,33.535,184.015,32.729Z" transform="translate(-164.828 -26.978)" fill="#3edfce"/>
      <path id="Path_12" data-name="Path 12" d="M201.186,37.557H195.3c0,8.151,9.56,8.151,10.367,13.436h5.751C211.413,42.843,201.969,42.843,201.186,37.557Z" transform="translate(-176.108 -31.806)" fill="#3edfce"/>
      <path id="Path_13" data-name="Path 13" d="M189.649,72.64v5.751c8.151,0,8.151-9.444,13.436-10.227V62.273C194.935,62.273,194.935,71.833,189.649,72.64Z" transform="translate(-173.532 -43.086)" fill="#3edfce"/>
      <path id="Path_14" data-name="Path 14" d="M165.751,56.627H160c0,8.151,9.444,8.151,10.227,13.436h5.891C176.117,61.913,166.557,61.913,165.751,56.627Z" transform="translate(-160 -40.51)" fill="#3edfce"/>
    </g>
  </g>
</svg>
