<?xml version="1.0"?>
<svg xmlns="http://www.w3.org/2000/svg" xmlns:xlink="http://www.w3.org/1999/xlink" version="1.1" id="Capa_1" x="0px" y="0px" viewBox="0 0 512 512" style="enable-background:new 0 0 512 512;" xml:space="preserve" width="512px" height="512px" class=""><g><g>
	<g>
		<polygon points="271.012,281.976 271.012,216.263 240.901,216.263 240.901,281.82 185.085,337.637 206.377,358.928     255.897,309.409 305.758,358.969 326.984,337.612   " data-original="#000000" class="active-path" data-old_color="#000000" fill="#FFFFFF"/>
	</g>
</g><g>
	<g>
		<path d="M142.197,422.68c7.144-9.623,11.378-21.529,11.378-34.408c0-31.898-25.951-57.848-57.848-57.848    c-31.898,0-57.847,25.951-57.847,57.848c0,12.91,4.253,24.843,11.427,34.477c-28.599,12.496-48.645,41.042-48.645,74.196V512    h190.334v-15.056C190.996,463.732,170.88,435.141,142.197,422.68z M95.727,360.534c15.294,0,27.737,12.442,27.737,27.737    s-12.443,27.737-27.737,27.737c-15.294,0-27.737-12.442-27.737-27.737S80.433,360.534,95.727,360.534z M33.048,481.889    c6.432-20.698,25.763-35.77,48.549-35.77h28.462c22.786,0,42.117,15.072,48.549,35.77H33.048z" data-original="#000000" class="active-path" data-old_color="#000000" fill="#FFFFFF"/>
	</g>
</g><g>
	<g>
		<path d="M462.542,422.68c7.144-9.623,11.378-21.529,11.378-34.408c0-31.898-25.95-57.848-57.848-57.848    s-57.848,25.95-57.848,57.848c0,12.91,4.253,24.843,11.427,34.477c-28.6,12.496-48.645,41.042-48.645,74.196V512h190.334v-15.056    C511.34,463.732,491.225,435.141,462.542,422.68z M416.073,360.534c15.294,0,27.737,12.442,27.737,27.737    s-12.442,27.737-27.737,27.737s-27.737-12.442-27.737-27.737S400.778,360.534,416.073,360.534z M353.394,481.889    c6.432-20.698,25.763-35.77,48.549-35.77h28.461c22.786,0,42.117,15.072,48.549,35.77H353.394z" data-original="#000000" class="active-path" data-old_color="#000000" fill="#FFFFFF"/>
	</g>
</g><g>
	<g>
		<path d="M302.421,92.256c7.144-9.623,11.378-21.529,11.378-34.408C313.799,25.95,287.848,0,255.95,0s-57.848,25.95-57.848,57.848    c0,12.91,4.253,24.842,11.427,34.477c-28.6,12.495-48.645,41.042-48.645,74.195v15.055h190.334V166.52h0.001    C351.219,133.308,331.102,104.716,302.421,92.256z M255.95,30.111c15.294,0,27.736,12.442,27.736,27.737    s-12.442,27.737-27.736,27.737c-15.294,0-27.737-12.442-27.737-27.737S240.657,30.111,255.95,30.111z M193.271,151.465    c6.432-20.697,25.763-35.769,48.549-35.769h28.462c22.786,0,42.117,15.072,48.549,35.769H193.271z" data-original="#000000" class="active-path" data-old_color="#000000" fill="#FFFFFF"/>
	</g>
</g></g> </svg>
