<?xml version="1.0"?>
<svg xmlns="http://www.w3.org/2000/svg" xmlns:xlink="http://www.w3.org/1999/xlink" version="1.1" id="Layer_1" x="0px" y="0px" viewBox="0 0 496 496" style="enable-background:new 0 0 496 496;" xml:space="preserve" width="512px" height="512px" class=""><g><g>
	<g>
		<g>
			<path d="M472,128V0h-96v128h-2.848l-38.656-85.056L282.352,1.232l-10.64,63.824L299.688,128H272v48h16v24H40     c-22.056,0-40,17.944-40,40v168c0,22.056,17.944,40,40,40h88v32H96v16h176v-16h-32v-32h88c22.056,0,40-17.944,40-40v-40h88     c13.232,0,24-10.768,24-24V176h16v-48H472z M392,16h64v16h-16v16h16v16h-32v16h32v16h-16v16h16v16h-64V16z M293.648,30.76     l24.928,19.952l-29.912,9.968L293.648,30.76z M293.984,75.768l32.864-10.952L355.576,128H317.2L293.984,75.768z M224,480h-80v-32     h80V480z M328,432H40c-13.232,0-24-10.768-24-24h336C352,421.232,341.232,432,328,432z M352,392H16V240c0-13.232,10.768-24,24-24     h248v128c0,13.232,10.768,24,24,24h40V392z M464,312h-16v16h16v16c0,4.416-3.584,8-8,8H312c-4.416,0-8-3.584-8-8v-16h128v-16H304     V176h160V312z M480,160H288v-16h192V160z" data-original="#000000" class="active-path" data-old_color="#000000" fill="#FFFFFF"/>
			<path d="M144,176c48.52,0,88-39.48,88-88S192.52,0,144,0S56,39.48,56,88S95.48,176,144,176z M144,16c39.704,0,72,32.296,72,72     s-32.296,72-72,72s-72-32.296-72-72S104.296,16,144,16z" data-original="#000000" class="active-path" data-old_color="#000000" fill="#FFFFFF"/>
			<path d="M152,112h-16c-4.416,0-8-3.584-8-8h-16c0,13.232,10.768,24,24,24v16h16v-16c13.232,0,24-10.768,24-24s-10.768-24-24-24     h-16c-4.416,0-8-3.584-8-8s3.584-8,8-8h16c4.416,0,8,3.584,8,8h16c0-13.232-10.768-24-24-24V32h-16v16c-13.232,0-24,10.768-24,24     s10.768,24,24,24h16c4.416,0,8,3.584,8,8S156.416,112,152,112z" data-original="#000000" class="active-path" data-old_color="#000000" fill="#FFFFFF"/>
			<path d="M32,376h240V232H32V376z M48,248h208v112H48V248z" data-original="#000000" class="active-path" data-old_color="#000000" fill="#FFFFFF"/>
			<path d="M199.8,304c-2.032-22.392-20.888-40-43.8-40c-16.528,0-31.512,9.464-38.96,24H99.72l-34.376,51.56l13.312,8.872     L108.28,304h31.44l29.624,44.44l13.312-8.872L169.616,320H204l21.6,28.8l12.8-9.592L212,304H199.8z M158.944,304l-10.664-16     h-11.704c5.104-5.008,12.024-8,19.424-8c14.064,0,25.632,10.464,27.592,24H158.944z" data-original="#000000" class="active-path" data-old_color="#000000" fill="#FFFFFF"/>
		</g>
	</g>
</g></g> </svg>
