<?xml version="1.0"?>
<svg xmlns="http://www.w3.org/2000/svg" id="Layer_5" enable-background="new 0 0 64 64" height="512px" viewBox="0 0 64 64" width="512px" class=""><g><g><path d="m31 55h24v-24h-24zm2-22h20v20h-20z" data-original="#000000" class="active-path" data-old_color="#000000" fill="#FFFFFF"/><path d="m60.394 38.411c-.411-1.561-1.032-3.057-1.851-4.46l1.23-2.461-2.773-2.774v-24.716c0-1.654-1.346-3-3-3h-50c-1.654 0-3 1.346-3 3v38c0 1.654 1.346 3 3 3h19v1.721l2.606.869c.411 1.561 1.032 3.057 1.851 4.46l-1.23 2.461 5.262 5.262 2.461-1.23c1.403.819 2.899 1.44 4.46 1.851l.869 2.606h7.441l.869-2.606c1.561-.411 3.057-1.032 4.46-1.852l2.462 1.231 5.261-5.262-1.23-2.461c.819-1.403 1.44-2.899 1.851-4.46l2.607-.869v-7.441zm-56.394-35.411h50c.551 0 1 .449 1 1v5h-52v-5c0-.551.449-1 1-1zm0 40c-.551 0-1-.449-1-1v-31h52v15.715l-.488-.488-2.462 1.231c-1.403-.82-2.899-1.44-4.46-1.852l-.869-2.606h-7.441l-.869 2.606c-1.561.411-3.057 1.032-4.46 1.851l-2.461-1.23-5.262 5.262 1.23 2.461c-.819 1.403-1.44 2.899-1.851 4.46l-2.607.869v3.721zm57 2.279-2.294.765-.125.547c-.396 1.725-1.078 3.367-2.026 4.881l-.298.476 1.083 2.168-3.223 3.223-2.168-1.083-.476.298c-1.514.949-3.156 1.63-4.881 2.026l-.547.125-.766 2.295h-4.559l-.765-2.294-.547-.125c-1.725-.396-3.367-1.078-4.881-2.026l-.476-.298-2.168 1.083-3.223-3.223 1.083-2.168-.298-.476c-.949-1.514-1.63-3.156-2.026-4.881l-.125-.547-2.294-.766v-4.559l2.294-.765.125-.547c.396-1.725 1.078-3.367 2.026-4.881l.298-.476-1.083-2.168 3.223-3.223 2.168 1.083.476-.298c1.514-.949 3.156-1.63 4.881-2.026l.547-.125.766-2.294h4.559l.765 2.294.547.125c1.725.396 3.367 1.078 4.881 2.026l.476.298 2.168-1.083 3.223 3.223-1.083 2.168.298.476c.949 1.514 1.63 3.156 2.026 4.881l.125.547 2.294.766z" data-original="#000000" class="active-path" data-old_color="#000000" fill="#FFFFFF"/><path d="m35 35h2v2h-2z" data-original="#000000" class="active-path" data-old_color="#000000" fill="#FFFFFF"/><path d="m39 35h12v2h-12z" data-original="#000000" class="active-path" data-old_color="#000000" fill="#FFFFFF"/><path d="m35 39h16v2h-16z" data-original="#000000" class="active-path" data-old_color="#000000" fill="#FFFFFF"/><path d="m35 51h16v-8h-16zm2-6h12v4h-12z" data-original="#000000" class="active-path" data-old_color="#000000" fill="#FFFFFF"/><path d="m5 5h2v2h-2z" data-original="#000000" class="active-path" data-old_color="#000000" fill="#FFFFFF"/><path d="m13 5h2v2h-2z" data-original="#000000" class="active-path" data-old_color="#000000" fill="#FFFFFF"/><path d="m9 5h2v2h-2z" data-original="#000000" class="active-path" data-old_color="#000000" fill="#FFFFFF"/><path d="m5 35h2v2h-2z" data-original="#000000" class="active-path" data-old_color="#000000" fill="#FFFFFF"/><path d="m9 35h12v2h-12z" data-original="#000000" class="active-path" data-old_color="#000000" fill="#FFFFFF"/><path d="m5 39h16v2h-16z" data-original="#000000" class="active-path" data-old_color="#000000" fill="#FFFFFF"/><path d="m14 20.858c1.399-.364 2.494-1.459 2.858-2.858h8.142v3h16v-8h-16v3h-8.142c-.447-1.72-2-3-3.858-3-2.206 0-4 1.794-4 4 0 1.858 1.28 3.411 3 3.858v4.142h-7v8h16v-8h-7zm13-5.858h12v4h-12zm-16 2c0-1.103.897-2 2-2s2 .897 2 2-.897 2-2 2-2-.897-2-2zm8 14h-12v-4h12z" data-original="#000000" class="active-path" data-old_color="#000000" fill="#FFFFFF"/><path d="m43 13h10v2h-10z" data-original="#000000" class="active-path" data-old_color="#000000" fill="#FFFFFF"/><path d="m43 17h10v2h-10z" data-original="#000000" class="active-path" data-old_color="#000000" fill="#FFFFFF"/></g></g> </svg>
